<?xml version="1.0" encoding="utf-8"?>
<!-- Generator: Adobe Illustrator 21.1.0, SVG Export Plug-In . SVG Version: 6.00 Build 0)  -->
<svg version="1.1" xmlns="http://www.w3.org/2000/svg" xmlns:xlink="http://www.w3.org/1999/xlink" x="0px" y="0px"
	 viewBox="0 0 1024 1024" style="enable-background:new 0 0 1024 1024;" xml:space="preserve">
<style type="text/css">
	.st0{fill:#FFFFFF;}
	.st1{fill:#00B900;}
</style>
<g id="Layer_6">
</g>
<g id="Layer_5">
	<path class="st0" d="M804.6,645.4c54-59.2,79.9-119.3,79.9-186C884.5,292.6,717.4,157,512,157c-205.4,0-372.5,135.6-372.5,302.4
		C139.5,608.8,272,734,451,757.7c12.3,1.7,27.1,7,32.2,19.2c3.9,9.4,3.1,23.3,1.8,32.9c0,0-4.3,26.3-5.3,31.9
		c-1.6,9.4-7.5,36.8,32.3,20.1C551.8,845,726.5,735.4,804.6,645.4L804.6,645.4"/>
</g>
<g id="Layer_8">
	<g>
		<g>
			<path class="st1" d="M416.9,553.5c-3.5,0-6.4-2.8-6.4-6.3V392.8c0-3.5,2.9-6.3,6.4-6.3h24.3c3.5,0,6.4,2.8,6.4,6.3v154.3
				c0,3.5-2.9,6.3-6.4,6.3H416.9z"/>
			<path class="st1" d="M441.2,387c3.2,0,5.9,2.6,5.9,5.8v154.3c0,3.2-2.6,5.8-5.9,5.8h-24.3c-3.2,0-5.9-2.6-5.9-5.8V392.8
				c0-3.2,2.6-5.8,5.9-5.8H441.2 M441.2,386h-24.3c-3.8,0-6.9,3.1-6.9,6.8v154.3c0,3.8,3.1,6.8,6.9,6.8h24.3c3.8,0,6.9-3.1,6.9-6.8
				V392.8C448,389.1,444.9,386,441.2,386L441.2,386z"/>
		</g>
		<g>
			<path class="st1" d="M586.5,553.5c-0.5,0-1.1-0.1-1.6-0.2c-0.2-0.1-0.4-0.1-0.5-0.2l-0.2-0.1c-0.1,0-0.2-0.1-0.3-0.1
				c-0.1,0-0.2-0.1-0.3-0.1c-0.1,0-0.1-0.1-0.2-0.1c-0.1-0.1-0.3-0.2-0.4-0.2c-0.7-0.5-1.3-1-1.7-1.6l-71.8-96.7v93
				c0,3.5-2.9,6.3-6.4,6.3h-24.2c-3.5,0-6.4-2.8-6.4-6.3V392.8c0-3.5,2.9-6.3,6.4-6.3h24.7l0.2,0c0.1,0,0.2,0,0.3,0
				c0.1,0,0.2,0,0.3,0c0.1,0,0.2,0,0.3,0c0.1,0,0.2,0.1,0.4,0.1l0.2,0.1c0.1,0,0.3,0.1,0.4,0.1l0.2,0.1c0.1,0,0.2,0.1,0.4,0.2
				l0.2,0.1c0.1,0.1,0.2,0.1,0.3,0.2l0.2,0.1c0.1,0.1,0.2,0.1,0.3,0.2l0.2,0.1c0.1,0.1,0.2,0.2,0.3,0.3l0.1,0.1
				c0.1,0.1,0.3,0.3,0.4,0.4c0.2,0.2,0.4,0.5,0.5,0.7l71.6,97.5v-94c0-3.5,2.9-6.3,6.4-6.3h24.3c3.5,0,6.4,2.8,6.4,6.3v154.3
				c0,3.5-2.9,6.3-6.4,6.3H586.5z"/>
			<path class="st1" d="M611.2,387c3.2,0,5.9,2.6,5.9,5.8v154.3c0,3.2-2.6,5.8-5.9,5.8h-24.7c-0.5,0-1-0.1-1.5-0.2l-0.1,0l0,0
				c-0.1,0-0.3-0.1-0.4-0.1c-0.1,0-0.1,0-0.2-0.1c-0.1,0-0.2-0.1-0.3-0.1c-0.1,0-0.2-0.1-0.3-0.1c-0.1,0-0.1-0.1-0.2-0.1
				c-0.1-0.1-0.2-0.1-0.4-0.2l0,0l0,0c-0.6-0.4-1.1-0.9-1.5-1.5l-70.9-95.5l-1.8-2.4v3v91.5c0,3.2-2.6,5.8-5.9,5.8h-24.2
				c-3.2,0-5.9-2.6-5.9-5.8V392.8c0-3.2,2.6-5.8,5.9-5.8h24.7l0.1,0l0.1,0c0.1,0,0.2,0,0.3,0c0.1,0,0.2,0,0.3,0c0.1,0,0.2,0,0.2,0
				c0.1,0,0.2,0,0.4,0.1c0.1,0,0.1,0,0.2,0c0.1,0,0.2,0.1,0.3,0.1c0.1,0,0.1,0,0.2,0.1c0.1,0,0.2,0.1,0.4,0.2c0.1,0,0.1,0.1,0.2,0.1
				c0.1,0.1,0.2,0.1,0.3,0.2c0.1,0,0.1,0.1,0.2,0.1c0.1,0.1,0.2,0.1,0.3,0.2l0,0l0.1,0.1c0.1,0.1,0.2,0.2,0.3,0.3l0.1,0.1l0.1,0
				c0.1,0.1,0.2,0.2,0.3,0.4l0,0l0,0c0.2,0.2,0.3,0.4,0.5,0.6l70.7,96.3l1.8,2.5v-3.1v-92.5c0-3.2,2.6-5.8,5.9-5.8H611.2 M611.2,386
				h-24.3c-3.8,0-6.9,3.1-6.9,6.8v92.5L509.3,389c-0.2-0.2-0.3-0.5-0.5-0.7c0,0,0,0,0,0c-0.1-0.1-0.3-0.3-0.4-0.4
				c0,0-0.1-0.1-0.1-0.1c-0.1-0.1-0.2-0.2-0.4-0.3c-0.1,0-0.1-0.1-0.2-0.1c-0.1-0.1-0.2-0.2-0.4-0.2c-0.1,0-0.1-0.1-0.2-0.1
				c-0.1-0.1-0.2-0.1-0.4-0.2c-0.1,0-0.1-0.1-0.2-0.1c-0.1-0.1-0.3-0.1-0.4-0.2c-0.1,0-0.1-0.1-0.2-0.1c-0.1,0-0.3-0.1-0.4-0.1
				c-0.1,0-0.2,0-0.2-0.1c-0.1,0-0.3-0.1-0.4-0.1c-0.1,0-0.2,0-0.3,0c-0.1,0-0.2,0-0.4,0c-0.1,0-0.2,0-0.4,0c-0.1,0-0.2,0-0.2,0
				h-24.7c-3.8,0-6.9,3.1-6.9,6.8v154.3c0,3.8,3.1,6.8,6.9,6.8h24.2c3.8,0,6.9-3.1,6.9-6.8v-91.5l70.9,95.5c0.5,0.7,1.1,1.2,1.7,1.7
				c0,0,0.1,0,0.1,0.1c0.1,0.1,0.3,0.2,0.4,0.3c0.1,0,0.1,0.1,0.2,0.1c0.1,0.1,0.2,0.1,0.3,0.2c0.1,0,0.2,0.1,0.3,0.1
				c0.1,0,0.1,0.1,0.2,0.1c0.2,0.1,0.3,0.1,0.5,0.1c0,0,0.1,0,0.1,0c0.6,0.1,1.1,0.2,1.8,0.2h24.7c3.8,0,6.9-3.1,6.9-6.8V392.8
				C618,389.1,615,386,611.2,386L611.2,386z"/>
		</g>
		<g>
			<path class="st1" d="M282.9,553.5c-1.7,0-3.2-0.6-4.4-1.8l-0.1-0.1l-0.1-0.1c-1.1-1.2-1.8-2.7-1.8-4.4V392.8
				c0-3.5,2.9-6.3,6.4-6.3h24.3c3.5,0,6.4,2.8,6.4,6.3v123.7h67.6c3.5,0,6.3,2.9,6.3,6.4v24.3c0,3.5-2.8,6.4-6.3,6.4H282.9z"/>
			<path class="st1" d="M307.2,387c3.2,0,5.9,2.6,5.9,5.8V516v1h1h67.1c3.2,0,5.8,2.6,5.8,5.9v24.3c0,3.2-2.6,5.9-5.8,5.9h-98.3
				c-1.5,0-2.9-0.6-4-1.6c0,0-0.1-0.1-0.1-0.1c0,0-0.1-0.1-0.1-0.1c-1.1-1.1-1.6-2.5-1.6-4.1V392.8c0-3.2,2.6-5.8,5.9-5.8H307.2
				 M307.2,386h-24.3c-3.8,0-6.9,3.1-6.9,6.8v154.3v0c0,1.8,0.7,3.5,1.9,4.7c0,0,0.1,0.1,0.1,0.1c0,0,0.1,0.1,0.1,0.1
				c1.2,1.2,2.9,1.9,4.7,1.9h0h98.3c3.8,0,6.8-3.1,6.8-6.9v-24.3c0-3.8-3.1-6.9-6.8-6.9H314V392.8C314,389.1,311,386,307.2,386
				L307.2,386z"/>
		</g>
		<g>
			<path class="st1" d="M648.9,553.5c-1.7,0-3.2-0.6-4.4-1.8l-0.1-0.1l-0.1-0.1c-1.1-1.2-1.8-2.7-1.8-4.4V392.9
				c0-1.6,0.6-3.2,1.8-4.4l0.1-0.1l0.1-0.1c1.2-1.2,2.8-1.8,4.4-1.8h98.3c3.5,0,6.3,2.9,6.3,6.4v24.3c0,3.5-2.8,6.4-6.3,6.4h-67.6
				v28h67.6c3.5,0,6.3,2.9,6.3,6.4v24.3c0,3.5-2.8,6.4-6.3,6.4h-67.6v28h67.6c3.5,0,6.3,2.9,6.3,6.4v24.3c0,3.5-2.8,6.4-6.3,6.4
				H648.9z"/>
			<path class="st1" d="M747.1,387c3.2,0,5.8,2.6,5.8,5.9v24.3c0,3.2-2.6,5.9-5.8,5.9H680h-1v1v27v1h1h67.1c3.2,0,5.8,2.6,5.8,5.9
				v24.3c0,3.2-2.6,5.9-5.8,5.9H680h-1v1v27v1h1h67.1c3.2,0,5.8,2.6,5.8,5.9v24.3c0,3.2-2.6,5.9-5.8,5.9h-98.3c-1.5,0-2.9-0.6-4-1.6
				c0,0-0.1-0.1-0.1-0.1c0,0-0.1-0.1-0.1-0.1c-1.1-1.1-1.6-2.5-1.6-4.1V392.8c0-1.5,0.6-2.9,1.6-4c0,0,0.1-0.1,0.1-0.1
				c0,0,0.1,0,0.1-0.1c1.1-1.1,2.5-1.6,4.1-1.6H747.1 M747.1,386h-98.3h0c-1.8,0-3.5,0.7-4.8,1.9c0,0-0.1,0-0.1,0.1
				c0,0-0.1,0.1-0.1,0.1c-1.2,1.2-1.9,2.9-1.9,4.7v0v154.3v0c0,1.8,0.7,3.5,1.9,4.7c0,0,0.1,0.1,0.1,0.1c0,0,0.1,0.1,0.1,0.1
				c1.2,1.2,2.9,1.9,4.7,1.9h0h98.3c3.8,0,6.8-3.1,6.8-6.9v-24.3c0-3.8-3.1-6.9-6.8-6.9H680v-27h67.1c3.8,0,6.8-3.1,6.8-6.9v-24.3
				c0-3.8-3.1-6.9-6.8-6.9H680v-27h67.1c3.8,0,6.8-3.1,6.8-6.9v-24.3C754,389.1,750.9,386,747.1,386L747.1,386z"/>
		</g>
	</g>
</g>
</svg>
